<svg xmlns="http://www.w3.org/2000/svg" viewBox="0 0 160.06 159.67"><defs><style>.cls-1{fill:#1d1d1d;}</style></defs><title>cirlce1</title><g id="Calque_2" data-name="Calque 2"><g id="Calque_1-2" data-name="Calque 1"><path class="cls-1" d="M155.59,65.07c0,.2,0,.26-.09.28l.15.47Z"/><path class="cls-1" d="M124,37.12l-.07,0c.05.09.12.18.11.25S124.11,37.28,124,37.12Z"/><path class="cls-1" d="M134.3,41.54a5,5,0,0,1,.37.46C134.7,41.94,134.54,41.76,134.3,41.54Z"/><path class="cls-1" d="M154.26,58.94c.09.51.17,1,.25,1.56A2.32,2.32,0,0,0,154.26,58.94Z"/><path class="cls-1" d="M133.18,40.53c.28.29.78.68,1.12,1A8,8,0,0,0,133.18,40.53Z"/><path class="cls-1" d="M104,29.41c.28.15.59.31.93.47,0,0,.1,0,.11-.09Z"/><path class="cls-1" d="M115.56,7.53c-1.1-.54-1.35-.51-1.27-.28A4.53,4.53,0,0,1,115.56,7.53Z"/><path class="cls-1" d="M87.2.75a5.2,5.2,0,0,0,.62-.13C87.37.68,87.07.74,87.2.75Z"/><path class="cls-1" d="M103.16,5.37a.4.4,0,0,0,.15.25C103.42,5.59,103.4,5.51,103.16,5.37Z"/><path class="cls-1" d="M21.76,128.44l-.19-.55A1,1,0,0,0,21.76,128.44Z"/><path class="cls-1" d="M47.79,144.68l.27.09Z"/><path class="cls-1" d="M48.69,145l-.63-.22C48.33,144.87,48.57,145,48.69,145Z"/><path class="cls-1" d="M103.23,28.14c-.86.07-2.82-.39-3,0,1.25.41,2.48.84,3.71,1.28C102.72,28.72,102.15,28.11,103.23,28.14Z"/><path class="cls-1" d="M8.59,54.64A15.78,15.78,0,0,0,7.73,57c.31-.81.62-1.65.91-2.44Z"/><path class="cls-1" d="M3,86.71l0-.13v.2Z"/><path class="cls-1" d="M9.4,52.17a1.47,1.47,0,0,0,0-.5C9.19,52.17,9.25,52.23,9.4,52.17Z"/><path class="cls-1" d="M158,71.39c0,.18.08.33.12.57A2.78,2.78,0,0,0,158,71.39Z"/><path class="cls-1" d="M3.85,84.67c-.32.67-.54,1.35-.81,2l.2,1C3.67,88.12,3.81,85.7,3.85,84.67Z"/><path class="cls-1" d="M9.4,52.17a11.56,11.56,0,0,1-.76,2.41c.25-.32.54-.62.81-.93C10.75,51.06,9.77,52,9.4,52.17Z"/><path class="cls-1" d="M116.92,10.28c-.52-.5.36-.21,1,0s1.06.28,0-.49c-1-.3-1.87-.64-2.82-.88.58-.05-.65-1.2-.8-1.63-1.29,0,2.65,2.75-.69,1.92a5.89,5.89,0,0,1-2-.66c-.79-.36-1.63-.77-2.18-1.07,2.49,1.27-.31.51-1.42.37a19.47,19.47,0,0,0-2.67-1.21,7.22,7.22,0,0,1-2-1,8.36,8.36,0,0,1-2.44-.43l0-.24c-2-.24.62.36.06.48a50.15,50.15,0,0,0-6-1.38c2.37.24,4.38.28,6.11.43-4.24-1.29,1-1,2.15-1.26a36.4,36.4,0,0,0-8-.4c-3.5-.81.44-1.65,1.39-1.56A42,42,0,0,0,88,2a18.49,18.49,0,0,0,2.21-1A7.39,7.39,0,0,1,92.34.28c-2.68-.65-3.26,0-4.52.34A5.09,5.09,0,0,1,90,.67c-3.17-.1-2.61,1.27-4.18,1.92-2.29-.31-6.61.11-6.44-.7l.15.84c-2.59.62-1.43-.2-1.89-.42-.87.77.45,1.28-3.79,2.47.32-1.52-3.85.86-4.06-.32-2,.67-2.64,1.64-4.71,2.23-1.23.09-.63-.6.48-1.32a11.15,11.15,0,0,1,3.39-1.54c2.91-.92-.22.66.94.3.89-.4,1.8-.77,2.71-1.14-1.65.13-4.8.78-4.59.13-2.76,1.17,2.45-.18-.55,1.14-.65.11-1.31.21-2,.34-2.92,1.41.94.63-2.89,2.29,1.19-.78.12-.39-1.22.14s-3,1.2-3.07.73c.17.55-1.51,1.37-3.23,2.27S51.58,12,51.45,12.57l2-.88-.66-.2a38.11,38.11,0,0,1,6-3.22c-1.57,1.2,1,.58-.87,1.87-3.44,2.46-1.27-.05-1.8.22-.9.68-1.79,1.38-2.66,2.09.73-.23,1.47-.43,2.21-.64l-1.79,1.1-2,1.26c-1.39.87-3,1.69-4.41,2.71-4.71,2.41.18-.89-3.3.72-1.26,1.16-.75,1.15-2.69,2.56,1.22-.53,1.71-1.56,2.51-2,.7,0-.18.61-1.05,1.41s-1.87,1.65-1.56,1.85c-.94.39-1,.05-.54-.66-.75.68-1.51,1.33-2.25,1.93s-1.39,1.23-2.05,1.75a10.43,10.43,0,0,1-3.34,1.94l-.62,1.86c-5.09,4.7,2.77-3.93-1.73-.17a30.37,30.37,0,0,0-2.4,2.46,9.33,9.33,0,0,0-1.36,2L28.53,31c-.7,1.52-.37,1.66-1.8,3.77-1.24,1.29-1.08.19-2,2.2-3.75,4-2.11.54-2.18-.68-2.88,3,0-2.67-1.45-.24l.61-.48c-.56,1.38-1.15,2.71-1.65,4.09,3.15-2.6.23-1.8,2-2.47l1.5-1.82c-.07.89-3.7,5-3.44,5.76-.13-.06-.25-.31-.17-.8A5.12,5.12,0,0,1,21,38.11c-.59.18-1.19.35-1.77.54-.9,1.14-.85,2.33-1.69,2.71-1.8,1.4.87-3.24-2.36,1a14.82,14.82,0,0,0-2.39,4.75,14.34,14.34,0,0,1-1.47,3.66,8.85,8.85,0,0,0,1.42-2.13c-.31,1.25,1-.5.26,1.46a8.66,8.66,0,0,0-2.11,2.76c-.39.67-.79,1.4-1.16,2.15s-.67,1.52-1,2.22c0-.9-1.19.76-1-.22a11.73,11.73,0,0,0-1,3.61c1.5-2.79,1-1.33.53.29s-.89,3.47.29,1.33A31.89,31.89,0,0,1,5.44,66.9c-.56,1.1-1.09,2-1.71,3.38-.16-.25,1.2-5.57-.36-1.47-.71,5,1.27-.54,1,3.42l1.15-2.9c.5,0,.17,1.24-.29,2.66-.24.7-.47,1.44-.63,2.07a6.29,6.29,0,0,0-.28,1.32c-.66,1.81.35-2.66-.69-1-.83,2.76-.66,4.27-1.26,6A11.78,11.78,0,0,1,2,77.59c-.2.82-.33,1.44-.41,1.9a8.28,8.28,0,0,1-.24.92c-.14.35-.22.24-.31.08-.19-.32-.39-.87-1,1.7-.13,1.67.52.69,0,3.33.85-1.47,1.09-1.23,1.79-5.47.36.83.08,2.2-.29,3.76L1.28,85c-.07.41-.13.82-.18,1.24A10.81,10.81,0,0,0,1,88.65a17.36,17.36,0,0,0,.37-3.32c.86-.25,1.07-1.16,1.6,1.25,0-1.38-.09-2.38-.12-3.53a15.3,15.3,0,0,1,.47-4.37c1-.9-.16,4.88.91,5.07a11.41,11.41,0,0,1,0,1.89c0,.74-.15,1.57-.28,2.4-.24,1.66-.67,3.33-.88,4.4.44,3.8.61,8.44,1.84,11.2a19.28,19.28,0,0,0,.24,2.68c.19,1.08.44,2.31.74,3.61.62,2.59,1.48,5.41,2.1,7.88a10.94,10.94,0,0,0,.61,3c.3,1,.45,1.64-.38.25.28.38,2,4.3,2,3.08-.34-.33-.38-.84-.77-1.68l.87.52a15.35,15.35,0,0,0,1.73,3.4,22.57,22.57,0,0,1,1.9,3.22c0,.45-.7-.42-1.24-1.27s-1.1-1.59-1-.75a22.57,22.57,0,0,1,1.92,2.15c.4.48.82,1,1.25,1.57L16.33,133c.45.58,1,1.13,1.45,1.66s.93,1.09,1.38,1.56c.89,1,1.66,1.79,2.13,2.36,1.36,1.43,1.07,2.14,1.66,2.74.87.71,1.77,1.37,2.69,2,.17.43,0,.7.38,1.31a11.45,11.45,0,0,0,3.33,1.91c1.75,1.34,2.08,1.8,1.66,1.89a7.79,7.79,0,0,1-2.68-.64c-.68-.51-1.34-1-2-1.58-1.74-.74-3.8-2.51-2.94-1a2.83,2.83,0,0,0,1.7.59c.34.39.67.8,1,1.18,1.42.64,5.09,2.57,5,1.87,2.46,1.81,5.75,2.88,8,4.22-1.55-1,.67-.33.33-.92-1-.45-1.91-.87-2.83-1.37,1.16.48,2.66.88,4.08,1.4.72.25,1.41.53,2.07.78a15.82,15.82,0,0,1,1.82.77c-.38.23-.51.3.53,1-1.45-1,4.36.83,1.06-.89A19.88,19.88,0,0,1,42,152.61c-.4-.56,0-.59.78-.47s1.79.3,2.57.35a77.18,77.18,0,0,0,8,1.64c1.52.48,1.83,1.38,4.61,1.46-1.65-.7-.78-.79.61-.84a16.1,16.1,0,0,0,3.8-.4,10.34,10.34,0,0,0,3.33.24,7.26,7.26,0,0,1,2.93.34c-1.07.15-5-.16-6.13.2-.22.48.73,1.47-3.31,1.15,4.78.93,2.88,0,5.11,0-.55,0-1.1,0-1.65-.11.77-.1-.58-.67.86-.5,5.59.72,6.55,1.22,10.4,2-.86-.35.89-.74,1.79-.79,3.71.37,0,1.09,2.29,1.79,1.29-.48,3.82-.61,2.94-.89,1.47-.13.72.13,1.79.2a11,11,0,0,1,4-1.15c-.15.25-.39.62-2.35.76,2.2-.1,3.12.55,2.22,1.1-1.22.06-2.42.16-3.64.14-.8.32,0,.31,1.09.28s2.26-.19,2.22.08a13.6,13.6,0,0,1-2.13.24,8.23,8.23,0,0,0-1.7.11c1.08.52,4.17-.44,6-.75,1.45-.13,1.93-.11,2.06.06s-.08.42,0,.55c2.39-.9.91-.87-.57-.83s-3-.05-.82-.77c1.61-.92,5.91-1.61,8.84-2.55-1.37,0-1.35-.3-.63-.68s2.15-.85,3.6-1.45c-1.95.6-2.27.42-2.64.37s-.81,0-3.07.76l-.22-.54c2-.48,4.35-.77,6.27-1.4-.35.28.13.26-.47.55l2.84-1c1-.33,1.87-.76,2.8-1.13l-.45.57c.88-.31,1.82-.61,2.76-.91s1.87-.68,2.76-1,1.73-.65,2.47-1a17.52,17.52,0,0,0,1.83-1c-1.58.87-3.24,1-1.61,0a20.9,20.9,0,0,1,4-2.54c1.11.22,6.65-3.09,3.48-.44a27.58,27.58,0,0,0,3.41-2.59c.6-.54,1.19-1.06,3.09-2.7-.86.71-1.75,1.4-2.64,2.07-.64-.21,1.14-2.47-1.67-1a4.38,4.38,0,0,0,1.77-2.13c.22-.53.61-1.08,2.48-2.61,1.72-1,.25,1.24-1.95,3a11.14,11.14,0,0,0,3.25-2.5c1.11-.32-1.59,2.25-1.4,2.29,2.06-1.54-.2-.19,1.61-1.8a6.48,6.48,0,0,1,2.72-2.1,5.31,5.31,0,0,0,2.62-2c-.6.66-1.86,1.63-1.26.71a11.12,11.12,0,0,0,2.57-3.12,11.47,11.47,0,0,1,1.48-2.54c1.95-1.27,2,0,4.29-2.83-.39.55-.78,1.1-1.18,1.64a13.61,13.61,0,0,0,3-3.39A79.66,79.66,0,0,0,148,113c1.17-3.24,2.28-6.52,3.5-10.13-.31.86-.6,1.72-.92,2.57-.61.73.63-2.2.34-2.28l1-1.42c-.32-.63-2,3.28-2.08,2.14a3.37,3.37,0,0,0,.47-1l-.77,1.36c1.59-3.16,1.67-6.08,3.37-8.25-1.09,3.23-.85,3.6-.53,4s.67.78-.54,4c1.21-3.4.8-.35,1.17-.6.84-1.72,0-1,.94-2.94.39.19-1.07,4.62,0,2.83-.48-.46.36-2.18.29-3.21.74-1.42.36.18.8-.4a16.63,16.63,0,0,1,.56-2.14l.15.7c1-2,1-2.39.91-2.85s-.11-1,.66-3.4c-.46-.28-.74,1.25-1.29,3.27-.71.33-.48-1.3-.32-3s.25-3.48-.38-3.42c.84-4.55.21,1.31,1.35-2.49.59-1,.66-.25.6.91a22.07,22.07,0,0,0-.17,3.27c.51-1.32,1-2.65,1.41-4,.72,1.59-.24,4.1.42,5.07a14.1,14.1,0,0,0,.6-3c.07-.72.08-1.45.21-3.08-1.73,5-.17-2.33-1.68.4.36-1.13.51-1.52.69-2.05a15.48,15.48,0,0,0,.54-2.91c-.09,2.22.81.19.39,3.11A26.59,26.59,0,0,0,160,80c0-.86,0-1.73.06-4.1-.65-1.45-1,4.67-1.39-.92,0-1.2.26-1,.26-.26.2-4-.84.82-1.25-1.65-.13-1.69.06-2.32.28-1.63-.55-2.53-.93-1.07-1.24-2.73v.77c-.29-.67-1,1.32-1.51-2.17-.41-2.53.07-1.8.3-1.91a24.24,24.24,0,0,1-1-4.85c-.1.17-.26.06-.47-.51-.64-1.58-.71-2.06-.61-2.34s.31-.32.12-.94c-.85-2.31-1.09-2-1.38-1.79s-.63.4-1.93-1.88a37.71,37.71,0,0,1,2.43,5.61c-.43-.11-.9-.06-.48,1.16.52-.07,1.67,1.85,2.05,3.9-.23.36-.68-1-1.15-1.86s-.78-1.48-.62.23A29.3,29.3,0,0,0,151,58c.56.57.18-.55-.25-1.52s-.81-1.8.11-.82a44.82,44.82,0,0,0-3.65-5.9,23.6,23.6,0,0,0-4.65-4.69,8.53,8.53,0,0,1,2.6,1.41A12.6,12.6,0,0,1,148.53,50l-.13.42c1.29,1.52.95.83.37-.23s-1.52-2.38-1.05-2.29c-2-1.63-3.86-3.66-6.06-5.71a37.07,37.07,0,0,0-7.5-5.61c.78.87-.39.35-.8.51,2.22,1.27,1.92.93,3.24,2.3-.54.17-1.7-.8-2.55-.95-.82.06,1.61,1,2.18,1.74a10.83,10.83,0,0,0-3.38-1.31c-.93-1-.67-1.11-1.33-2a21.6,21.6,0,0,0-5-2.33,25.27,25.27,0,0,1-4.29-1.76c2.39,1.2-.93-1,1.64.39-.47-.26-1-.49-1.44-.74a56.44,56.44,0,0,1,6.74,2.51c2.07.86,3.61,1.45,3.59.76-3-1.64-5.54-2.24-9.34-4l.26-.13c-2.75-1.31-.08.28-.82.17-3.24-1-3.58-2.81-6.08-2.91,1.06.47,2.1,1,3.15,1.48-2.61-.57.67.37-.22.85-2.24-.64-5.18-1.76-8.41-2.85a77.8,77.8,0,0,0-10-2.77,21.19,21.19,0,0,0,4.58,1.85c-1.39.67-2.28.23-1.4,1.45l2.83.95-.27.94a18,18,0,0,1-2.18-.83c-.56.45-4.26-1.49-4.62-1l2.45.63c1,.84-1.79-.06-3.54-.38,1.45,1.06,5.28,1.47,8.66,2.57-.13-.42,3.48,0,.21-1.15.16-.36,2.21.1,3.5.57-.73,0,2.15,1.91-1,1.09,3,.62,1.29.44,4.53,1.47-.26,0,1.11.57,2.45,1.21s2.64,1.38,2.29,1.69c1.1.14.48-1.19,4,.48-.58-1-4.55-2.88-1.6-2.21l-1.91-.45c-2.43-1.35.94-.26-2.3-1.91,1,.44,3.09,1,3.35,1.61-.17-.75,1.13-.35,2.51.2s2.87,1.24,3.16.86c.54.72,1.46,1.22,3.24,2.13-.4.15.39,1-1.06.42a35,35,0,0,1-3.05-1.92c.13,1.43,4.35,2.74,7,4.71-.34-.32-.38-.5.47-.17.79.61,2,1.57,2.89,2.37s1.31,1.42.66,1.28a43.82,43.82,0,0,1,6.92,6.15c-.19.22-.94-.88-1.39-1.22a32,32,0,0,1,3.11,3.85c.16.58-.15.29-.57-.16A5,5,0,0,0,144,51.54a31.82,31.82,0,0,1,2,2.78l-.59-.19a4.25,4.25,0,0,1,.72.86,10,10,0,0,1,.89,1.47,8.07,8.07,0,0,1,.67,1.62,2.75,2.75,0,0,1,.18,1.23c.41.86.76,1.48,1.08,2s.64,1,.92,1.51a10.44,10.44,0,0,1,1.26,5c-.6-.12-.75-3-1.47-4.08.08,1,1.12,4.08.56,4.72a8.76,8.76,0,0,0,1.28,3.32,5.93,5.93,0,0,1,1.21,1.94c0,3.32-.52.36-.7.5,0,1,1.07,2.6.16,3.46.34,1.62.78,2.61,1.19.2a27.41,27.41,0,0,0,0,4.91c-.67-1.61-.68,2-1.5,2.06-.32,1.34-.92,3.48-1.49,5.62a27.22,27.22,0,0,0-1.1,5.72l-.67-1.08c-.34,1-.69,2.09-1.06,3.13-1.47,2.07.49-2.94.91-4.49-1.53,4.13-2.67,6.91-4.36,10.63.7-1,.58-.26,1.1-.65-.21,1.45-1.34,3.08-1.89,4.45-.38.21-.49,0,0-1.11l-1.17,2.59c-.45-.49-1.07.74-.17-1.94l-1,2.42c-1.49,2.46-.38-.35-.24-1.08-.73,1.33-1.48,2.64-2.23,3.92-.5,1.55.93-.51-.45,2.23-2.54,3.23-5.21,7.51-8.27,10.48.83-.59,1.64-1.23,2.44-1.9-1.81,1.9-.74,2.14-1,3a36.68,36.68,0,0,1-6,5.14c1.57-1.9.33-1.8-1.66-.8a11,11,0,0,0-3.07,2.82,5.79,5.79,0,0,1-1.68,2c.64-1.11-.19-.72-1.16-.18s-2.13,1.23-2.07.81a84.35,84.35,0,0,1-18.36,8.05c.18.13,2.12-.27,1,.27a8.22,8.22,0,0,1-2.79.64,3.59,3.59,0,0,1-1.29-.13c-1.56.48-2.8.82-3.76,1.16a13.61,13.61,0,0,0-2.17,1c1.38-.39,1.54-.25,1.34.14a7.12,7.12,0,0,1-2.82.22,6.18,6.18,0,0,0-2.65.46c-.89-.54,3.39-.79,3-1.39a31.14,31.14,0,0,0-3.63.64c-1,.23-2,.43-3,.68-.51-.38,1.91-.25.3-.47-2.21.39-4.66.56-7,.81l-3.35.15-1.51.06-1.36,0-.85-.62c-1.07-.08-2-.09-2.71-.13a11.28,11.28,0,0,0-1.87,0c-1.12-.38-.2-.39.91-.3-.71-.12-1.46-.21-2.22-.28l-1.13-.1-1.1-.14c-1.43-.19-2.73-.32-3.53-.46.33-.28,1.61.27,2.13.11-3.48-.78-8.16-1.11-10.17-2.58a3.18,3.18,0,0,1,1,.21c-5-1.78-9.49-3.25-14.33-6.21-2-1.66-2.41-1.75-2.91-1.76s-1.06.08-3-1.57c.47-.58-.81-1.68-2.26-3-.72-.63-1.48-1.33-2.11-2-.32-.33-.63-.63-.87-.93a6.14,6.14,0,0,1-.55-.81l.22.67c-2-1.56-3.32-4.89-3.71-6.59-.79-1.7-1.74-3.84-2.53-6.07s-1.6-4.52-2.24-6.35l.45.69c-1-3.06-.84-5.13-1.53-8.31.11.08.4,1.27.4,0-.72-15.47,2.22-32,9.85-46a93.87,93.87,0,0,1,14-19.28,90.33,90.33,0,0,1,19.6-15.57,74.38,74.38,0,0,1,11.25-5.56,66.4,66.4,0,0,1,11.69-3.48,51.71,51.71,0,0,1,22.6.3s3.67-.57,7.54-.8S117.26,12,116.92,10.28Z"/><path class="cls-1" d="M158.93,74.67l0,.45A2.5,2.5,0,0,0,158.93,74.67Z"/><path class="cls-1" d="M125.26,139.12a10.52,10.52,0,0,0,.86-.63C125.83,138.69,125.55,138.89,125.26,139.12Z"/><path class="cls-1" d="M64.3,156.31l1.37.06A12.47,12.47,0,0,0,64.3,156.31Z"/><path class="cls-1" d="M3,89.77c-.47.51-1-2.36-1.56,0C1.09,94,1.59,95,2,95.91s.72,1.9.92,6.23c0-1.48.19-3,.31-4.41C2.45,98,2,94.88,2.12,91.47l.64-1c.1.58.19,1.21.28,1.85C3.16,91.07,2.73,91.28,3,89.77Z"/><path class="cls-1" d="M3,92.65l.05-.21s0-.07,0-.11Z"/></g></g></svg>