<?xml version="1.0" encoding="utf-8"?>
<!-- Generator: Adobe Illustrator 23.1.0, SVG Export Plug-In . SVG Version: 6.00 Build 0)  -->
<svg version="1.1" xmlns="http://www.w3.org/2000/svg" xmlns:xlink="http://www.w3.org/1999/xlink" x="0px" y="0px"
	 viewBox="0 0 1000 1000" style="enable-background:new 0 0 1000 1000;" xml:space="preserve">
<style type="text/css">
	.st0{fill:#FFFFFF;}
</style>
<g id="Calque_1">
	<g>
		<g>
			<path d="M829.6,541.6l-2.5,11.2c-0.4,1.9-0.8,3.8-1.3,5.6l-1.5,5.5l-1.5,5.5c-0.5,1.9-1,3.7-1.6,5.5l-3.6,10.9
				c-0.3,0.9-0.6,1.8-0.9,2.7l-1,2.7l-2.1,5.4l-2.1,5.4l-0.5,1.3l-0.6,1.3l-1.2,2.6l-4.6,10.6l-5.1,10.3c-0.9,1.7-1.7,3.5-2.6,5.1
				l-2.8,5l-2.8,5c-1,1.7-1.8,3.4-2.9,5l-6.1,9.8l-1.5,2.4c-0.5,0.8-1.1,1.6-1.6,2.4l-3.3,4.7l-3.3,4.7c-0.6,0.8-1.1,1.6-1.7,2.4
				l-1.8,2.3l-7.1,9.1c-1.1,1.5-2.5,3-3.7,4.4l-3.8,4.4l-3.8,4.4c-1.2,1.5-2.6,2.8-3.9,4.2l-8,8.4c-2.8,2.7-5.6,5.3-8.4,8l-4.2,4
				l-4.4,3.8l-8.8,7.5l-9.2,7.1l-4.6,3.5l-4.8,3.3l-9.5,6.6l-9.9,6.1c-1.6,1-3.3,2-4.9,3l-5.1,2.8c-3.4,1.9-6.8,3.8-10.2,5.6
				l-10.4,5.1c-1.7,0.8-3.5,1.7-5.2,2.5l-5.3,2.3c-14.1,6.3-28.9,11.2-43.8,15.4l-11.3,2.9l-1.4,0.4l-1.4,0.3l-2.8,0.6l-5.7,1.2
				l-5.7,1.2c-1.9,0.3-3.8,0.6-5.7,0.9c-3.8,0.6-7.7,1.2-11.5,1.8c-7.7,0.8-15.4,1.8-23.2,2.1l-5.8,0.3l-2.9,0.2l-2.9,0l-11.7,0.1
				c-1.9,0.1-3.9-0.1-5.8-0.1l-5.8-0.2l-5.8-0.2c-1.9-0.1-3.9-0.3-5.8-0.5c-3.9-0.4-7.8-0.6-11.6-1.1l-11.6-1.6
				c-3.9-0.4-7.7-1.3-11.5-1.9c-3.8-0.7-7.7-1.3-11.5-2.3l-11.4-2.7c-3.8-1-7.5-2.1-11.3-3.2c-1.9-0.5-3.8-1-5.6-1.6l-5.5-1.9
				l-5.5-1.9c-1.8-0.6-3.7-1.2-5.5-1.9l-10.9-4.3l-2.7-1.1l-2.7-1.2l-5.3-2.4c-7.2-3-14.1-6.8-21.1-10.3l-10.2-5.8
				c-1.7-1-3.4-1.9-5.1-2.9l-4.9-3.1c-13.3-8.2-25.8-17.6-37.9-27.7l-8.9-7.7c-2.9-2.6-5.7-5.4-8.5-8.1l-4.2-4.1
				c-1.4-1.4-2.7-2.8-4-4.3l-8.1-8.6l-7.6-8.9c-1.3-1.5-2.6-3-3.8-4.5l-3.6-4.7c-2.4-3.1-4.8-6.2-7.1-9.4l-6.7-9.7l-1.7-2.4
				c-0.6-0.8-1.1-1.6-1.6-2.5l-3.1-5l-3.1-5l-1.5-2.5l-0.8-1.3l-0.7-1.3c-3.8-6.9-7.8-13.7-11-20.8l-2.6-5.3
				c-0.9-1.8-1.7-3.5-2.5-5.3l-4.6-10.9l-1.2-2.7l-1-2.8l-2-5.5c-1.3-3.7-2.8-7.4-3.9-11.1l-3.5-11.3c-0.3-0.9-0.6-1.9-0.8-2.8
				l-0.7-2.9l-1.5-5.7l-1.5-5.7c-0.4-1.9-0.8-3.9-1.2-5.8c-0.8-3.9-1.6-7.7-2.4-11.6c-1.2-7.8-2.6-15.6-3.3-23.4l-0.6-5.9l-0.3-2.9
				l-0.2-3l-0.7-11.8c-0.2-2-0.1-3.9-0.1-5.9l-0.1-5.9l-0.1-5.9c0-2,0.1-3.9,0.2-5.9c0.2-3.9,0.3-7.9,0.5-11.8l1-11.8
				c0.3-3.9,0.9-7.8,1.4-11.8l0.8-5.9c0.1-1,0.2-2,0.4-2.9l0.5-2.9l2.1-11.7c0.8-3.9,1.8-7.7,2.6-11.6l1.4-5.8l1.6-5.7l1.6-5.7
				c0.6-1.9,1-3.8,1.7-5.7l3.8-11.3l1-2.8l1.1-2.8l2.2-5.5c23.1-59,63-111.7,114.3-149.6c25.5-19.1,53.7-34.6,83.5-46.1
				c29.8-11.5,61.4-18.7,93.3-21.5c8.3-0.7,15.5,5.3,16.3,13.6s-5.3,15.5-13.6,16.3c-0.1,0-0.2,0-0.2,0l-0.1,0
				c-29.2,2-58.2,8-85.8,18c-27.6,10-53.9,23.8-77.8,41c-48.1,34.1-86.2,82.2-108.9,136.9l-2.1,5.1l-1.1,2.6l-0.9,2.6l-3.8,10.5
				c-0.7,1.7-1.1,3.5-1.7,5.3l-1.6,5.3l-1.6,5.3l-1.4,5.4c-0.9,3.6-1.9,7.2-2.7,10.8l-2.2,10.9l-0.6,2.7c-0.2,0.9-0.3,1.8-0.5,2.7
				l-0.9,5.5c-0.5,3.7-1.2,7.3-1.5,11l-1.2,11.1c-0.3,3.7-0.5,7.4-0.7,11.1c-0.1,1.9-0.2,3.7-0.3,5.6l-0.1,5.6l-0.1,5.6
				c0,1.9-0.1,3.7,0,5.6l0.4,11.2l0.1,2.8l0.2,2.8l0.5,5.6c0.5,7.4,1.7,14.8,2.7,22.2c0.6,3.7,1.3,7.3,2,11c0.3,1.8,0.7,3.7,1,5.5
				l1.3,5.4l1.3,5.4l0.6,2.7c0.2,0.9,0.4,1.8,0.7,2.7l3.1,10.7c1,3.6,2.3,7.1,3.5,10.6l1.8,5.3l0.9,2.6l1,2.6l4.2,10.4
				c0.7,1.7,1.5,3.4,2.3,5.1l2.4,5.1c3,6.9,6.7,13.4,10.1,20l0.7,1.2l0.7,1.2l1.4,2.4l2.9,4.8l2.9,4.8c0.5,0.8,1,1.6,1.5,2.4
				l1.6,2.3l6.2,9.4c2.1,3.1,4.4,6,6.6,9.1l3.3,4.5c1.1,1.5,2.4,2.9,3.5,4.4l7.1,8.7l7.5,8.3c1.3,1.4,2.5,2.8,3.8,4.2l4,4
				c2.7,2.6,5.3,5.3,8,7.9l8.4,7.5c11.3,9.8,23.2,19.1,35.8,27.3l4.7,3.1c1.6,1,3.2,1.9,4.8,2.9l9.7,5.8c6.7,3.5,13.2,7.2,20.1,10.3
				l5.1,2.4l2.6,1.2l2.6,1.1l10.4,4.3c1.7,0.8,3.5,1.3,5.3,2l5.3,1.9l5.3,1.9c1.8,0.6,3.6,1.1,5.4,1.7c3.6,1.1,7.2,2.2,10.8,3.3
				l11,2.8c3.6,1,7.4,1.6,11,2.4c3.7,0.7,7.4,1.6,11.1,2.1l11.2,1.7c3.7,0.5,7.5,0.8,11.3,1.2l5.6,0.6l5.7,0.3l5.7,0.3
				c1.9,0.1,3.8,0.3,5.7,0.3l11.3,0.1l2.8,0l2.8-0.1l5.7-0.2c7.6-0.1,15.1-1,22.6-1.6c3.8-0.4,7.5-1,11.3-1.5
				c1.9-0.3,3.8-0.5,5.6-0.8l5.6-1l5.6-1l2.8-0.5l1.4-0.3l1.4-0.3l11.1-2.6c14.6-3.8,29.2-8.3,43.2-14.2l5.3-2.1
				c1.8-0.7,3.5-1.6,5.2-2.3l10.3-4.8c3.4-1.7,6.7-3.5,10.1-5.3l5-2.7c1.6-0.9,3.3-1.9,4.9-2.9l9.8-5.8l9.5-6.3l4.8-3.2l4.6-3.4
				l9.2-6.8l8.8-7.2l4.4-3.6l4.2-3.8c2.8-2.6,5.7-5.1,8.4-7.7l8-8.1c1.3-1.4,2.7-2.7,4-4.1l3.8-4.3l3.8-4.3c1.3-1.4,2.6-2.8,3.8-4.3
				l7.2-8.9l1.8-2.2c0.6-0.7,1.1-1.5,1.7-2.3l3.4-4.6l3.4-4.6c0.6-0.8,1.1-1.5,1.7-2.3l1.6-2.4l6.3-9.6c1.1-1.6,2-3.3,3-4.9l2.9-4.9
				l2.9-4.9c0.9-1.7,1.8-3.4,2.7-5.1l5.3-10.2l4.8-10.4l1.2-2.6l0.6-1.3l0.5-1.3l2.2-5.3l2.2-5.3l1.1-2.7c0.4-0.9,0.6-1.8,1-2.7
				l3.8-10.8c0.7-1.8,1.2-3.6,1.7-5.5l1.6-5.5l1.6-5.5c0.6-1.8,0.9-3.7,1.4-5.6L829.6,541.6z"/>
		</g>
	</g>
	<g>
		<path d="M554.3,115.9l-4.3,47.8l6.5,0.6l0,0.3l-20-1.8l0-0.3l6.6,0.6l4.3-47.8l-6.6-0.6l0-0.3l20,1.8l0,0.3L554.3,115.9z"/>
		<path d="M636.9,134.1l-13.4,46.1l6.3,1.8l-0.1,0.3l-19.3-5.6l0.1-0.3l6.3,1.8l13.3-45.8l-31.6,40.8l-0.5-0.1l-4.8-51.1l-13.2,45.5
			l6.3,1.8l-0.1,0.3l-12.9-3.7l0.1-0.3l6.3,1.8l13.4-46.1l-6.3-1.8l0.1-0.3l12.9,3.7l4.2,42.7l26.2-33.9l13.1,3.8l-0.1,0.3
			L636.9,134.1z"/>
		<path d="M695.5,177.6c-4.3,7.7-12.7,8.3-22.5,2.9l-6-3.3L656.6,196l5.8,3.2l-0.2,0.3l-17.6-9.8l0.2-0.3l5.8,3.2l23.3-42l-5.8-3.2
			l0.2-0.3l16.6,9.2C695.7,162.4,699.8,169.8,695.5,177.6z M689.1,174c3.2-5.7,4.9-12.1-4.4-17.3l-4.9-2.7l-12.7,22.8l5.8,3.2
			C681.4,184.7,686,179.7,689.1,174z"/>
		<path d="M732.9,232.5l-9.7,11.4l-30.3-25.6l0.2-0.3l5,4.2l31-36.7l-5-4.2l0.2-0.3l28.2,23.8l-7.9,9.4l-0.3-0.2
			c4.1-5.8,4.3-11.9-2.1-17.4l-7.8-6.6l-14.5,17.2l3.3,2.8c5.7,4.8,10.1,3.6,14.3-0.9l0.3,0.2l-13,15.4l-0.3-0.2
			c3.7-4.9,4.2-9.4-1.5-14.2l-3.3-2.8l-16.3,19.2l10,8.5c6.4,5.4,13.7,2.8,19.2-2.9L732.9,232.5z M753.2,190.5
			c-2.3,0.1-11,0.4-11,0.4l-0.1-0.3c0,0,8.1-2.9,10.2-3.6c1.9-0.7,3.4-0.5,3.7,1.1C756.5,189.6,755.3,190.3,753.2,190.5z"/>
		<path d="M768,294.8c-0.4,0-3.5,0.2-6.1-3.2c-4.5-5.8-4.8-10,5-17.7c7.9-6.1,5.6-10.8,0.8-17l-3.7-4.8l-19.4,15.1l4,5.2l-0.3,0.2
			l-12.3-15.8l0.3-0.2l4,5.2l37.9-29.4l-4-5.2l0.3-0.2l12.3,15.8c6.4,8.3,8.2,16.3,1.2,21.7c-5.6,4.4-11.9,1.9-17.3-4.1
			c5.6,8.3,6.4,15.4-1.6,21.6c-5.9,4.6-8.1,7.2-5.6,10.4c1.5,1.9,4,2.1,4.6,2.1L768,294.8z M769,257.9c4.7,6.1,10.1,4.2,14.6,0.7
			c5.2-4,8.5-8.7,3.1-15.7l-4.1-5.3l-18.2,14.2L769,257.9z"/>
		<path d="M822.5,298.4l-42.3,22.6l3.1,5.7l-0.3,0.2l-9.4-17.7l0.3-0.2l3.1,5.8l42.3-22.6l-3.1-5.8l0.3-0.2l9.4,17.7l-0.3,0.2
			L822.5,298.4z"/>
		<path d="M806.1,386.7l-0.3,0.1l-6.4-19l0.3-0.1l2.1,6.2l13.5-11.2l-5.9-17.3l-17.5-0.6l1.7,5.1l-0.3,0.1l-3.3-9.8l0.3-0.1l1.5,4.3
			l52.3,2l0.2,0.5L804,380.5L806.1,386.7z M815.5,362.4l19.1-16l-24.9-1L815.5,362.4z"/>
		<path d="M829,438.6l-14.8,2l-5.4-39.4l0.3,0l0.9,6.5l47.6-6.6l-0.9-6.5l0.3,0l2.7,19.9l-0.3,0l-0.9-6.5l-47.6,6.6l1.8,12.9
			c1.1,8.3,8.3,11.3,16.2,10.7L829,438.6z"/>
		<path d="M828.3,498.6l-14.9-0.7l1.8-39.6l0.3,0l-0.3,6.5l48,2.2l0.3-6.5l0.3,0l-1.7,36.9l-12.2-0.6l0-0.4
			c7.1-0.3,12.1-3.9,12.5-12.3l0.5-10.3l-22.4-1l-0.2,4.3c-0.3,7.4,3.3,10.1,9.5,10.8l0,0.4l-20.2-0.9l0-0.4
			c6.1-0.1,10-2.4,10.3-9.9l0.2-4.3l-25.2-1.1l-0.6,13.1c-0.4,8.4,6.1,12.6,14,13.4L828.3,498.6z"/>
	</g>
</g>
<g id="Calque_2">
	<path id="SVGID_x5F_1_x5F_" style="fill:none;" d="M-485.9,975.8c148.4,76,204.6,262.8,125.5,417.2s-263.5,218-411.9,141.9
		s-204.6-262.8-125.5-417.2S-634.3,899.8-485.9,975.8z"/>
	<text>	<textPath  xlink:href="#SVGID_x5F_1_x5F_" startOffset="124.8697%">
<tspan  style="font-family:'MADESAONARA'; font-size:69.5668px; letter-spacing:214.3;">impériale</tspan>	</textPath>
</text>
	<path id="SVGID_x5F_2_x5F_" style="fill:none;" d="M1816.8,480.7c144.1,99.8,176.7,302.3,72.9,452.3s-304.9,190.6-449,90.7
		s-176.7-302.3-72.9-452.3S1672.7,380.9,1816.8,480.7z"/>
	<text>	<textPath  xlink:href="#SVGID_x5F_2_x5F_" startOffset="124.8697%">
<tspan  style="font-family:'OmegaSans-Bold'; font-size:73.1429px; letter-spacing:192.2;">impériale</tspan>	</textPath>
</text>
	<path id="SVGID_x5F_3_x5F_" style="fill:none;" d="M1612.3,584.9c148.4,76,204.6,262.8,125.5,417.2s-263.5,218-411.9,141.9
		s-204.6-262.8-125.5-417.2S1463.9,508.8,1612.3,584.9z"/>
	<text>	<textPath  xlink:href="#SVGID_x5F_3_x5F_" startOffset="124.8697%">
<tspan  style="font-family:'MADESAONARA'; font-size:87px; letter-spacing:58.6;">impériale</tspan>	</textPath>
</text>
	<g>
		<path d="M-314.5,1322.7l-2.5,11.2c-0.4,1.9-0.8,3.8-1.3,5.6l-1.5,5.5l-1.5,5.5c-0.5,1.9-1,3.7-1.6,5.5l-3.6,10.9
			c-0.3,0.9-0.6,1.8-0.9,2.7l-1,2.7l-2.1,5.4l-2.1,5.4l-0.5,1.3l-0.6,1.3l-1.2,2.6l-4.6,10.6l-5.1,10.3c-0.9,1.7-1.7,3.5-2.6,5.1
			l-2.8,5l-2.8,5c-1,1.7-1.8,3.4-2.9,5l-6.1,9.8l-1.5,2.4c-0.5,0.8-1.1,1.6-1.6,2.4l-3.3,4.7l-3.3,4.7c-0.6,0.8-1.1,1.6-1.7,2.4
			l-1.8,2.3l-7.1,9.1c-1.1,1.5-2.5,3-3.7,4.4l-3.8,4.4l-3.8,4.4c-1.2,1.5-2.6,2.8-3.9,4.2l-8,8.4c-2.8,2.7-5.6,5.3-8.4,8l-4.2,4
			l-4.4,3.8l-8.8,7.5l-9.2,7.1l-4.6,3.5l-4.8,3.3l-9.5,6.6l-9.9,6.1c-1.6,1-3.3,2-4.9,3l-5.1,2.8c-3.4,1.9-6.8,3.8-10.2,5.6
			l-10.4,5.1c-1.7,0.8-3.5,1.7-5.2,2.5l-5.3,2.3c-14.1,6.3-28.9,11.2-43.8,15.4l-11.3,2.9l-1.4,0.4l-1.4,0.3l-2.8,0.6l-5.7,1.2
			l-5.7,1.2c-1.9,0.3-3.8,0.6-5.7,0.9c-3.8,0.6-7.7,1.2-11.5,1.8c-7.7,0.8-15.4,1.8-23.2,2.1l-5.8,0.3l-2.9,0.2l-2.9,0l-11.7,0.1
			c-1.9,0.1-3.9-0.1-5.8-0.1l-5.8-0.2l-5.8-0.2c-1.9-0.1-3.9-0.3-5.8-0.5c-3.9-0.4-7.8-0.6-11.6-1.1l-11.6-1.6
			c-3.9-0.4-7.7-1.3-11.5-1.9c-3.8-0.7-7.7-1.3-11.5-2.3l-11.4-2.7c-3.8-1-7.5-2.1-11.3-3.2c-1.9-0.5-3.8-1-5.6-1.6l-5.5-1.9
			l-5.5-1.9c-1.8-0.6-3.7-1.2-5.5-1.9l-10.9-4.3l-2.7-1.1l-2.7-1.2l-5.3-2.4c-7.2-3-14.1-6.8-21.1-10.3l-10.2-5.8
			c-1.7-1-3.4-1.9-5.1-2.9l-4.9-3.1c-13.3-8.2-25.8-17.6-37.9-27.7l-8.9-7.7c-2.9-2.6-5.7-5.4-8.5-8.1l-4.2-4.1
			c-1.4-1.4-2.7-2.8-4-4.3l-8.1-8.6l-7.6-8.9c-1.3-1.5-2.6-3-3.8-4.5l-3.6-4.7c-2.4-3.1-4.8-6.2-7.1-9.4l-6.7-9.7l-1.7-2.4
			c-0.6-0.8-1.1-1.6-1.6-2.5l-3.1-5l-3.1-5l-1.5-2.5l-0.8-1.3l-0.7-1.3c-3.8-6.9-7.8-13.7-11-20.8l-2.6-5.3
			c-0.9-1.8-1.7-3.5-2.5-5.3l-4.6-10.9l-1.2-2.7l-1-2.8l-2-5.5c-1.3-3.7-2.8-7.4-3.9-11.1l-3.5-11.3c-0.3-0.9-0.6-1.9-0.8-2.8
			l-0.7-2.9l-1.5-5.7l-1.5-5.7c-0.4-1.9-0.8-3.9-1.2-5.8c-0.8-3.9-1.6-7.7-2.4-11.6c-1.2-7.8-2.6-15.6-3.3-23.4l-0.6-5.9l-0.3-2.9
			l-0.2-3l-0.7-11.8c-0.2-2-0.1-3.9-0.1-5.9l-0.1-5.9l-0.1-5.9c0-2,0.1-3.9,0.2-5.9c0.2-3.9,0.3-7.9,0.5-11.8l1-11.8
			c0.3-3.9,0.9-7.8,1.4-11.8l0.8-5.9c0.1-1,0.2-2,0.4-2.9l0.5-2.9l2.1-11.7c0.8-3.9,1.8-7.7,2.6-11.6l1.4-5.8l1.6-5.7l1.6-5.7
			c0.6-1.9,1-3.8,1.7-5.7l3.8-11.3l1-2.8l1.1-2.8l2.2-5.5c23.1-59,63-111.7,114.3-149.6c25.5-19.1,53.7-34.6,83.5-46.1
			c29.8-11.5,61.4-18.7,93.3-21.5c8.3-0.7,15.5,5.3,16.3,13.6s-5.3,15.5-13.6,16.3c-0.1,0-0.2,0-0.2,0l-0.1,0
			c-29.2,2-58.2,8-85.8,18c-27.6,10-53.9,23.8-77.8,41c-48.1,34.1-86.2,82.2-108.9,136.9l-2.1,5.1l-1.1,2.6l-0.9,2.6l-3.8,10.5
			c-0.7,1.7-1.1,3.5-1.7,5.3l-1.6,5.3l-1.6,5.3l-1.4,5.4c-0.9,3.6-1.9,7.2-2.7,10.8l-2.2,10.9l-0.6,2.7c-0.2,0.9-0.3,1.8-0.5,2.7
			l-0.9,5.5c-0.5,3.7-1.2,7.3-1.5,11l-1.2,11.1c-0.3,3.7-0.5,7.4-0.7,11.1c-0.1,1.9-0.2,3.7-0.3,5.6l-0.1,5.6l-0.1,5.6
			c0,1.9-0.1,3.7,0,5.6l0.4,11.2l0.1,2.8l0.2,2.8l0.5,5.6c0.5,7.4,1.7,14.8,2.7,22.2c0.6,3.7,1.3,7.3,2,11c0.3,1.8,0.7,3.7,1,5.5
			l1.3,5.4l1.3,5.4l0.6,2.7c0.2,0.9,0.4,1.8,0.7,2.7l3.1,10.7c1,3.6,2.3,7.1,3.5,10.6l1.8,5.3l0.9,2.6l1,2.6l4.2,10.4
			c0.7,1.7,1.5,3.4,2.3,5.1l2.4,5.1c3,6.9,6.7,13.4,10.1,20l0.7,1.2l0.7,1.2l1.4,2.4l2.9,4.8l2.9,4.8c0.5,0.8,1,1.6,1.5,2.4l1.6,2.3
			l6.2,9.4c2.1,3.1,4.4,6,6.6,9.1l3.3,4.5c1.1,1.5,2.4,2.9,3.5,4.4l7.1,8.7l7.5,8.3c1.3,1.4,2.5,2.8,3.8,4.2l4,4
			c2.7,2.6,5.3,5.3,8,7.9l8.4,7.5c11.3,9.8,23.2,19.1,35.8,27.3l4.7,3.1c1.6,1,3.2,1.9,4.8,2.9l9.7,5.8c6.7,3.5,13.2,7.2,20.1,10.3
			l5.1,2.4l2.6,1.2l2.6,1.1l10.4,4.3c1.7,0.8,3.5,1.3,5.3,2l5.3,1.9l5.3,1.9c1.8,0.6,3.6,1.1,5.4,1.7c3.6,1.1,7.2,2.2,10.8,3.3
			l11,2.8c3.6,1,7.4,1.6,11,2.4c3.7,0.7,7.4,1.6,11.1,2.1l11.2,1.7c3.7,0.5,7.5,0.8,11.3,1.2l5.6,0.6l5.7,0.3l5.7,0.3
			c1.9,0.1,3.8,0.3,5.7,0.3l11.3,0.1l2.8,0l2.8-0.1l5.7-0.2c7.6-0.1,15.1-1,22.6-1.6c3.8-0.4,7.5-1,11.3-1.5
			c1.9-0.3,3.8-0.5,5.6-0.8l5.6-1l5.6-1l2.8-0.5l1.4-0.3l1.4-0.3l11.1-2.6c14.6-3.8,29.2-8.3,43.2-14.2l5.3-2.1
			c1.8-0.7,3.5-1.6,5.2-2.3l10.3-4.8c3.4-1.7,6.7-3.5,10.1-5.3l5-2.7c1.6-0.9,3.3-1.9,4.9-2.9l9.8-5.8l9.5-6.3l4.8-3.2l4.6-3.4
			l9.2-6.8l8.8-7.2l4.4-3.6l4.2-3.8c2.8-2.6,5.7-5.1,8.4-7.7l8-8.1c1.3-1.4,2.7-2.7,4-4.1l3.8-4.3l3.8-4.3c1.3-1.4,2.6-2.8,3.8-4.3
			l7.2-8.9l1.8-2.2c0.6-0.7,1.1-1.5,1.7-2.3l3.4-4.6l3.4-4.6c0.6-0.8,1.1-1.5,1.7-2.3l1.6-2.4l6.3-9.6c1.1-1.6,2-3.3,3-4.9l2.9-4.9
			l2.9-4.9c0.9-1.7,1.8-3.4,2.7-5.1l5.3-10.2l4.8-10.4l1.2-2.6l0.6-1.3l0.5-1.3l2.2-5.3l2.2-5.3l1.1-2.7c0.4-0.9,0.6-1.8,1-2.7
			l3.8-10.8c0.7-1.8,1.2-3.6,1.7-5.5l1.6-5.5l1.6-5.5c0.6-1.8,0.9-3.7,1.4-5.6L-314.5,1322.7z"/>
	</g>
	<g>
		<path class="st0" d="M-667.4,927.2c-28.5,1.5-56.9,7.2-83.9,16.8c-1,0.4-2.2-0.2-2.6-1.2c-0.4-1,0.2-2.2,1.2-2.6
			c27-10.7,55.7-17.5,84.8-20c1.9-0.2,3.6,1.3,3.8,3.2s-1.3,3.6-3.2,3.8C-667.3,927.2-667.4,927.2-667.4,927.2z"/>
	</g>
</g>
</svg>
